<svg width="9" height="17" viewBox="0 0 9 17" fill="none" xmlns="http://www.w3.org/2000/svg">
<path fill-rule="evenodd" clip-rule="evenodd" d="M7.99328 0.0146799C7.99328 0.93736 7.99328 2.5902 7.99328 2.5902C7.99328 2.5902 6.09482 2.40126 5.61933 3.12844C5.35943 3.5266 5.51369 4.69068 5.49069 5.52692C6.31948 5.52692 7.18029 5.52692 8.00897 5.52692C7.79599 6.50504 7.64356 7.16724 7.48699 8.01362C6.76979 8.01362 5.47661 8.01362 5.47661 8.01362V16.0161C5.47661 16.0161 3.10357 16.0161 1.988 16.0161C1.98869 13.5491 1.98742 10.6708 1.988 8.04522C1.44613 8.04522 1.04535 8.04522 0.50359 8.04522C0.50359 7.12194 0.50359 6.4502 0.50359 5.52692C1.02932 5.52692 1.44555 5.52692 1.97164 5.52692C2.04693 3.68574 2.0752 1.86184 2.9897 0.9332C4.01761 -0.11108 4.99792 0.0146799 7.99328 0.0146799Z" fill="#95E1D3"/>
</svg>
