<svg width="28" height="33" viewBox="0 0 28 33" fill="none" xmlns="http://www.w3.org/2000/svg">
<path fill-rule="evenodd" clip-rule="evenodd" d="M26.4999 17.4973H23.5C22.6716 17.4973 22 16.8267 22 15.9976V9.9978C22 9.16991 22.6716 8.49876 23.5 8.49876H26.4999C27.3284 8.49876 28 9.16991 28 9.9978V15.9976C28 16.8267 27.3284 17.4973 26.4999 17.4973ZM23.5 2.49716C23.5 1.66924 24.1715 0.998115 24.9999 0.998115C25.8284 0.998115 26.4999 1.66924 26.4999 2.49716V6.99792H23.5V2.49716ZM15.5 25.4974H12.4999C11.6716 25.4974 10.9999 24.8269 10.9999 23.9984V17.998C10.9999 17.17 11.6716 16.4977 12.4999 16.4977H15.5C16.3284 16.4977 17 17.17 17 17.998V23.9984C17 24.8269 16.3284 25.4974 15.5 25.4974ZM12.4999 2.49716C12.4999 1.66924 13.1716 0.998115 14 0.998115C14.8284 0.998115 15.5 1.66924 15.5 2.49716V14.998H12.4999V2.49716ZM4.50003 21.4979H1.49997C0.67152 21.4979 0 20.8262 0 19.9971V13.9973C0 13.1694 0.67152 12.4982 1.49997 12.4982H4.50003C5.32835 12.4982 6 13.1694 6 13.9973V19.9971C6 20.8262 5.32835 21.4979 4.50003 21.4979ZM1.49997 2.49716C1.49997 1.66924 2.17149 0.998115 2.99994 0.998115C3.82838 0.998115 4.50003 1.66924 4.50003 2.49716V10.9986H1.49997V2.49716ZM4.50003 31.4972C4.50003 32.3263 3.82838 32.9981 2.99994 32.9981C2.17149 32.9981 1.49997 32.3263 1.49997 31.4972V22.9982H4.50003V31.4972ZM15.5 31.4972C15.5 32.3263 14.8284 32.9981 14 32.9981C13.1716 32.9981 12.4999 32.3263 12.4999 31.4972V26.9971H15.5V31.4972ZM26.4999 31.4972C26.4999 32.3263 25.8284 32.9981 24.9999 32.9981C24.1715 32.9981 23.5 32.3263 23.5 31.4972V18.9987H26.4999V31.4972Z" fill="#95E1D3"/>
</svg>
