<svg width="16" height="17" viewBox="0 0 16 17" fill="none" xmlns="http://www.w3.org/2000/svg">
<path fill-rule="evenodd" clip-rule="evenodd" d="M13.9999 16.015H1.99996C0.895372 16.015 -2.98023e-06 15.1197 -2.98023e-06 14.0152V2.01501C-2.98023e-06 0.909956 0.895372 0.014695 1.99996 0.014695H13.9999C15.1046 0.014695 16 0.909956 16 2.01501V14.0152C16 15.1197 15.1046 16.015 13.9999 16.015ZM7.99998 4.91478C6.75269 4.91478 5.6805 5.65329 5.18852 6.71484H5.18576C5.18061 6.72616 5.17708 6.73809 5.17204 6.74942C5.14263 6.81438 5.11664 6.88234 5.09169 6.95028C5.0798 6.98247 5.06697 7.01407 5.05611 7.04743C5.03321 7.11718 5.01446 7.18811 4.9966 7.25962C4.98812 7.29301 4.97817 7.3258 4.97074 7.35977C4.95447 7.43547 4.94315 7.51236 4.93251 7.58984C4.92816 7.62083 4.92164 7.65182 4.9182 7.68342C4.90665 7.7925 4.9 7.90277 4.9 8.01482C4.9 9.72727 6.28784 11.1149 7.99998 11.1149C9.71202 11.1149 11.1 9.72727 11.1 8.01482C11.1 7.90277 11.0933 7.7925 11.0817 7.68342C11.0783 7.65182 11.0718 7.62083 11.0675 7.58984C11.0567 7.51236 11.0454 7.43547 11.0291 7.35977C11.0218 7.3258 11.0118 7.29301 11.0034 7.25962C10.9854 7.18811 10.9666 7.11718 10.9439 7.04743C10.933 7.01407 10.9202 6.98247 10.9083 6.95028C10.8833 6.88234 10.8572 6.81438 10.8278 6.74942C10.8229 6.73809 10.8194 6.72616 10.8142 6.71484H10.8113C10.3195 5.65329 9.24716 4.91478 7.99998 4.91478ZM14.1999 2.61524C14.1999 2.17296 13.8419 1.81534 13.4 1.81534H11.8C11.3581 1.81534 10.9999 2.17296 10.9999 2.61524V4.21502C10.9999 4.6567 11.3581 5.01493 11.8 5.01493H13.4C13.8419 5.01493 14.1999 4.6567 14.1999 4.21502V2.61524ZM14.1999 6.71484H12.7252C12.8389 7.12909 12.9 7.5648 12.9 8.01482C12.9 10.7209 10.7062 12.9149 7.99998 12.9149C5.2938 12.9149 3.09996 10.7209 3.09996 8.01482C3.09996 7.5648 3.16097 7.12909 3.27472 6.71484H1.79992V13.415C1.79992 13.8567 2.15811 14.2149 2.59998 14.2149H13.4C13.8419 14.2149 14.1999 13.8567 14.1999 13.415V6.71484Z" fill="#95E1D3"/>
</svg>
