<svg width="13" height="17" viewBox="0 0 13 17" fill="none" xmlns="http://www.w3.org/2000/svg">
<path fill-rule="evenodd" clip-rule="evenodd" d="M5.84424 10.424C5.71345 10.945 5.58194 11.4904 5.44553 12.0244C5.31095 12.5501 5.19274 13.0842 4.99705 13.567C4.6726 14.3681 4.2605 15.1423 3.71977 15.7682C3.36065 16.1854 3.43709 16.0185 3.32884 15.9965C3.24632 15.9792 3.23912 15.8987 3.22298 15.7813C3.13497 15.1447 3.19494 14.4092 3.22767 13.694C3.26486 12.8792 3.4363 12.2015 3.59525 11.5243C3.89807 10.2345 4.1868 8.97028 4.49235 7.6727C4.51272 7.58566 4.56743 7.44322 4.54854 7.39434C4.41006 7.03372 4.32013 6.70948 4.28064 6.33158C4.23509 5.89648 4.26999 5.49056 4.36773 5.11684C4.54031 4.45582 4.93822 3.86932 5.55151 3.65594C5.94117 3.52004 6.37331 3.58142 6.6355 3.73818C6.90569 3.89912 7.09097 4.15482 7.17749 4.51602C7.26972 4.90108 7.20175 5.36062 7.12759 5.69858C6.96062 6.45974 6.74147 7.03194 6.54199 7.76686C6.44312 8.13164 6.33142 8.50596 6.42367 8.89936C6.50858 9.26056 6.69661 9.5097 6.9533 9.69626C7.21914 9.88938 7.53409 9.99608 7.96873 9.98118C8.73594 9.95376 9.26935 9.4638 9.62594 9.00068C10.196 8.2604 10.5415 7.26082 10.6725 6.0717C10.7146 5.68904 10.7456 5.24798 10.716 4.81286C10.6615 4.01058 10.4104 3.36566 10.0121 2.86498C9.63303 2.38874 9.09563 2.00906 8.44217 1.79626C7.79397 1.58408 6.89676 1.51434 6.09968 1.65084C4.65155 1.89878 3.62993 2.72192 3.02831 3.858C2.71314 4.45344 2.50498 5.1377 2.50498 5.98946C2.50498 6.6463 2.66714 7.15532 2.92876 7.5517C3.01172 7.67746 3.13382 7.78118 3.21531 7.92542C3.33066 8.12866 3.19745 8.43264 3.14046 8.6526C3.07179 8.91842 3.06448 9.2856 2.75423 9.29156C2.62583 9.29394 2.46446 9.19976 2.35552 9.13956C1.54024 8.68894 1.04471 7.86878 0.841685 6.80604C0.718205 6.15992 0.71855 5.40592 0.841685 4.78126C0.96059 4.17748 1.18215 3.62076 1.42728 3.16836C1.9362 2.229 2.68155 1.47858 3.58907 0.94214C4.28671 0.52966 5.07371 0.24 6.03113 0.10112C6.34893 0.05462 6.6776 0.0355401 7.03421 0.01826C8.07665 -0.03062 9.02456 0.20602 9.73799 0.5249C10.4912 0.86166 11.0922 1.3099 11.6006 1.8654C12.1241 2.43762 12.5054 3.1028 12.7471 3.93428C12.8729 4.36642 12.9955 4.82954 12.9955 5.3636C12.9955 5.89946 12.8822 6.37152 12.8031 6.84358C12.5069 8.61146 11.6662 10.0563 10.4046 10.8794C10.0987 11.0791 9.72848 11.2627 9.30815 11.3855C8.89124 11.5065 8.41574 11.5977 7.90635 11.5619C7.41162 11.5279 7.00719 11.3938 6.66674 11.2019C6.32901 11.0111 6.04532 10.7775 5.84424 10.424Z" fill="#95E1D3"/>
</svg>
