<svg width="16" height="14" viewBox="0 0 16 14" fill="none" xmlns="http://www.w3.org/2000/svg">
<path fill-rule="evenodd" clip-rule="evenodd" d="M10.8829 0.515536C12.1543 0.493472 12.831 0.956608 13.4775 1.5455C14.0261 1.49842 14.7392 1.19205 15.1592 0.978656C15.2952 0.90416 15.4314 0.829648 15.5675 0.755136C15.3276 1.40363 15.0024 1.91088 14.5024 2.29592C14.3915 2.38176 14.2813 2.49739 14.1421 2.55163C14.1421 2.55461 14.1421 2.55699 14.1421 2.55938C14.8544 2.55222 15.442 2.23096 16 2.05691C16 2.0593 16 2.06168 16 2.06466C15.7069 2.53077 15.3101 3.00342 14.8868 3.34198C14.7161 3.47789 14.5451 3.61318 14.3744 3.74909C14.3837 4.50368 14.3632 5.2231 14.2223 5.8567C13.4024 9.54206 11.2303 12.0431 7.79182 13.1142C6.55699 13.4992 4.56173 13.6578 3.14712 13.3061C2.4456 13.132 1.81182 12.9353 1.21719 12.6755C0.886917 12.5306 0.580903 12.3751 0.288265 12.1963C0.192144 12.1378 0.096004 12.0794 -2.98023e-06 12.0204C0.319045 12.03 0.692357 12.1182 1.04906 12.0604C1.3718 12.0085 1.68822 12.0222 1.98588 11.9566C2.72849 11.7939 3.38779 11.5788 3.95587 11.2462C4.23122 11.0852 4.64916 10.8963 4.84484 10.6638C4.476 10.6698 4.14173 10.5845 3.86787 10.488C2.80597 10.1131 2.18787 9.42344 1.78573 8.38811C2.10753 8.42328 3.03439 8.50733 3.25126 8.32434C2.84614 8.30168 2.45658 8.06744 2.17814 7.8928C1.32395 7.35874 0.627358 6.4617 0.632621 5.08243C0.744664 5.13549 0.856821 5.18914 0.968959 5.24218C1.18343 5.33278 1.40166 5.38106 1.65767 5.43411C1.7657 5.45616 1.98189 5.51994 2.10605 5.47344C2.10079 5.47344 2.09541 5.47344 2.09003 5.47344C1.92477 5.28152 1.65549 5.15336 1.48944 4.94714C0.94139 4.26526 0.427896 3.21741 0.752777 1.96869C0.83518 1.65219 0.965881 1.37264 1.10504 1.11456C1.11041 1.11694 1.11579 1.11992 1.12105 1.1229C1.1848 1.25582 1.32717 1.35416 1.41734 1.46563C1.69727 1.81253 2.04253 2.12485 2.39432 2.39963C3.59309 3.33722 4.67261 3.91358 6.4064 4.34037C6.84619 4.44824 7.35454 4.5305 7.87983 4.5317C7.73231 4.10194 7.77968 3.40635 7.89585 2.99091C8.18801 1.94485 8.8227 1.19085 9.7538 0.787328C9.97638 0.690768 10.2232 0.620432 10.4824 0.563808C10.6159 0.547712 10.7494 0.531616 10.8829 0.515536Z" fill="#95E1D3"/>
</svg>
