<svg width="16" height="17" viewBox="0 0 16 17" fill="none" xmlns="http://www.w3.org/2000/svg">
<path fill-rule="evenodd" clip-rule="evenodd" d="M15.8375 6.4043C15.7326 5.89052 15.5752 5.38387 15.371 4.90047C15.1706 4.42543 14.9222 3.96886 14.6333 3.54149C14.3472 3.1177 14.0187 2.71954 13.657 2.35835C13.2952 1.99594 12.8969 1.66752 12.4734 1.38142C12.0462 1.09175 11.5884 0.844387 11.1144 0.643519C10.6311 0.439668 10.1252 0.281721 9.61086 0.177411C9.08396 0.068921 8.54198 0.014695 8.00032 0.014695C7.45788 0.014695 6.91588 0.068921 6.38866 0.177411C5.87482 0.281721 5.36876 0.439668 4.88548 0.643519C4.41146 0.844387 3.95382 1.09175 3.52614 1.38142C3.10272 1.66752 2.70446 1.99594 2.3426 2.35835C1.98096 2.71954 1.65264 3.1177 1.36654 3.54149C1.07768 3.96886 0.82924 4.42543 0.62884 4.90047C0.42446 5.38387 0.26732 5.89052 0.16204 6.4043C0.0543599 6.93001 -0.000360012 7.47301 -0.000360012 8.01423C-0.000360012 8.55723 0.0543599 9.09962 0.16204 9.62594C0.26732 10.1403 0.42446 10.6464 0.62884 11.1292C0.82924 11.6036 1.07768 12.062 1.36654 12.4887C1.65264 12.9125 1.98096 13.3101 2.3426 13.6725C2.70446 14.0343 3.10272 14.3621 3.52614 14.6482C3.95382 14.9373 4.41146 15.1859 4.88548 15.3861C5.36876 15.5906 5.87482 15.7467 6.38866 15.8522C6.91588 15.9613 7.45788 16.0155 8.00032 16.0155C8.54198 16.0155 9.08396 15.9613 9.61086 15.8522C10.1252 15.7467 10.6311 15.5906 11.1144 15.3861C11.5884 15.1859 12.0462 14.9373 12.4734 14.6482C12.8969 14.3621 13.2952 14.0343 13.657 13.6725C14.0187 13.3101 14.3472 12.9125 14.6333 12.4887C14.9222 12.062 15.1706 11.6036 15.371 11.1292C15.5752 10.6464 15.7326 10.1403 15.8375 9.62594C15.9456 9.09962 16.0003 8.55723 16.0003 8.01423C16.0003 7.47301 15.9456 6.93001 15.8375 6.4043ZM14.8302 7.94687C14.7313 7.92542 12.419 7.42772 10.0714 7.72277C10.0233 7.60594 9.97466 7.48852 9.92408 7.3699C9.78182 7.03611 9.62894 6.70471 9.46998 6.37928C12.168 5.27777 13.2636 3.69347 13.2765 3.67501C14.2348 4.83849 14.8145 6.32562 14.8302 7.94687ZM12.5126 2.88763C12.4958 2.91385 11.5227 4.39503 8.94366 5.36122C7.7759 3.21545 6.49268 1.51017 6.38992 1.37546C6.90638 1.25028 7.44494 1.18234 8.00032 1.18234C9.72998 1.18234 11.3088 1.82726 12.5126 2.88763ZM6.3637 1.38083C6.36336 1.38142 6.36244 1.38201 6.36244 1.38201C6.36244 1.38201 6.35456 1.38441 6.34196 1.38678C6.34894 1.38441 6.3565 1.38321 6.3637 1.38083ZM5.08494 1.83562C5.1757 1.9572 6.43924 3.67083 7.62198 5.77249C4.3413 6.64391 1.49424 6.60994 1.31388 6.60637C1.7578 4.49039 3.17938 2.73565 5.08494 1.83562ZM1.16774 8.01423C1.16774 7.94151 1.17096 7.86998 1.17346 7.79846C1.29386 7.80143 4.66998 7.87773 8.18766 6.8257C8.3837 7.20836 8.5707 7.5976 8.74202 7.9862C8.65162 8.01183 8.56224 8.03925 8.47274 8.06847C4.78568 9.25996 2.9156 12.5776 2.9156 12.5776C2.9156 12.5776 2.91778 12.5793 2.91812 12.5811C1.83024 11.37 1.16774 9.76958 1.16774 8.01423ZM8.00032 14.8473C6.34632 14.8473 4.82986 14.2596 3.64792 13.2815C3.73798 13.3542 3.8008 13.4013 3.8008 13.4013C3.8008 13.4013 5.11058 10.5444 9.1627 9.133C9.17758 9.12765 9.1928 9.12347 9.2079 9.1187C10.1693 11.6167 10.5663 13.7089 10.6675 14.3067C9.84786 14.6548 8.9463 14.8473 8.00032 14.8473ZM11.8178 13.682C11.7484 13.269 11.3843 11.2645 10.4879 8.80161C12.6937 8.44874 14.6048 9.05313 14.7458 9.09962C14.4417 11.0034 13.352 12.6461 11.8178 13.682Z" fill="#95E1D3"/>
</svg>
