<svg width="63" height="62" viewBox="0 0 63 62" fill="none" xmlns="http://www.w3.org/2000/svg">
<path fill-rule="evenodd" clip-rule="evenodd" d="M60 36.998H59.1001H58V41.9988C58 42.2044 57.9791 42.4077 57.9391 42.6026C57.9111 42.7391 57.8629 42.866 57.8171 42.9954C57.7973 43.0526 57.7871 43.1122 57.7642 43.1652C57.7157 43.2803 57.6492 43.3852 57.5875 43.4919C57.5525 43.5521 57.5266 43.6177 57.4876 43.676C57.3895 43.8197 57.2758 43.9538 57.1544 44.079C57.1424 44.0921 57.1337 44.1076 57.1213 44.1189C56.5867 44.6548 55.8504 44.985 55.0372 44.9945C55.0245 44.9945 55.0127 44.9975 55 44.9975C54.1716 44.9975 53.4216 44.6631 52.8786 44.1189L45.7574 36.998H45.4001H17.9999C16.3431 36.998 15 35.655 15 33.9981V3.99846C15 2.34144 16.3431 0.997376 17.9999 0.997376H60C61.6568 0.997376 63 2.34144 63 3.99846V33.9981C63 35.655 61.6568 36.998 60 36.998ZM44.5147 39.9985L50.8412 46.3249L50.8493 46.3165C51.9276 47.3537 53.3862 47.9986 55 47.9986V49.9989C55 51.6554 53.6568 52.9976 51.9999 52.9976H30.9H24H21H20.2426L12.1213 61.1199C11.5785 61.6623 10.8283 61.9985 10 61.9985C9.98722 61.9985 9.97554 61.9949 9.9628 61.9949C9.14948 61.9842 8.41332 61.654 7.87872 61.1199C7.86637 61.1068 7.8576 61.0913 7.84552 61.0788C7.72414 60.9542 7.61049 60.8202 7.51242 60.6747C7.47341 60.6181 7.44754 60.5525 7.41262 60.4917C7.35072 60.3844 7.28432 60.2801 7.23581 60.1663C7.21278 60.1121 7.20274 60.0518 7.18294 59.9958C7.13727 59.8665 7.08889 59.7395 7.06098 59.6024C7.02098 59.4081 7.00006 59.2054 7.00006 58.9974V52.9976H6.49998H2.9959C1.34095 52.9953 3.19481e-05 51.6541 3.19481e-05 49.9989V15.9992C3.19481e-05 15.998 3.19481e-05 15.998 3.19481e-05 15.998C3.19481e-05 14.3404 1.343 12.9981 3 12.9981H12.0001V33.9981C12.0001 37.3115 14.6863 39.9985 17.9999 39.9985H44.5147Z" fill="#95E1D3"/>
</svg>
