<svg width="17" height="15" viewBox="0 0 17 15" fill="none" xmlns="http://www.w3.org/2000/svg">
<path fill-rule="evenodd" clip-rule="evenodd" d="M9.41635 12.3584C8.84276 12.3584 8.28235 12.1927 7.74047 12.1146C5.54881 14.8856 2.09259 14.3403 2.09259 14.3403C4.53373 13.1851 4.48441 11.2712 4.05031 11.0161C2.13413 9.89017 0.981814 8.17594 0.981814 6.25548C0.981814 2.86456 4.7087 0.115608 9.41635 0.115608C14.124 0.115608 16.9932 2.86456 16.9932 6.25548C16.9932 9.64698 14.124 12.3584 9.41635 12.3584ZM5.24211 4.87503C4.41367 4.87503 3.74213 5.54617 3.74213 6.37468C3.74213 7.2032 4.41367 7.87494 5.24211 7.87494C6.07055 7.87494 6.7422 7.2032 6.7422 6.37468C6.7422 5.54617 6.07055 4.87503 5.24211 4.87503ZM8.99212 4.87503C8.16379 4.87503 7.49213 5.54617 7.49213 6.37468C7.49213 7.2032 8.16379 7.87494 8.99212 7.87494C9.82056 7.87494 10.4922 7.2032 10.4922 6.37468C10.4922 5.54617 9.82056 4.87503 8.99212 4.87503ZM12.7421 4.87503C11.9137 4.87503 11.2421 5.54617 11.2421 6.37468C11.2421 7.2032 11.9137 7.87494 12.7421 7.87494C13.5705 7.87494 14.2422 7.2032 14.2422 6.37468C14.2422 5.54617 13.5705 4.87503 12.7421 4.87503Z" fill="#95E1D3"/>
</svg>
