<svg width="30" height="31" viewBox="0 0 30 31" fill="none" xmlns="http://www.w3.org/2000/svg">
<path fill-rule="evenodd" clip-rule="evenodd" d="M30 24.9989C30 25.6498 29.5812 26.1994 29 26.4062V28.0894C29.5812 28.2962 30 28.8458 30 29.4979C30 30.3258 29.3283 30.9987 28.5 30.9987C27.8478 30.9987 27.2985 30.5785 27.0918 29.998H25.4081C25.2015 30.5785 24.6522 30.9987 24 30.9987C23.3478 30.9987 22.7984 30.5785 22.5919 29.998H20.9081C20.7014 30.5785 20.1521 30.9987 19.5 30.9987C18.8478 30.9987 18.2985 30.5785 18.0918 29.998H16.4082C16.2015 30.5785 15.6522 30.9987 15 30.9987C14.3478 30.9987 13.7984 30.5785 13.5918 29.998H11.9081C11.7016 30.5785 11.1522 30.9987 10.4999 30.9987C9.84786 30.9987 9.29841 30.5785 9.09186 29.998H7.4081C7.20152 30.5785 6.65211 30.9987 5.99989 30.9987C5.34781 30.9987 4.79849 30.5785 4.59182 29.998H2.90816C2.70148 30.5785 2.15216 30.9987 1.49995 30.9987C0.671647 30.9987 -2.02656e-06 30.3258 -2.02656e-06 29.4979C-2.02656e-06 28.8458 0.418735 28.2962 0.999964 28.0894V26.4062C0.418735 26.1994 -2.02656e-06 25.6498 -2.02656e-06 24.9989C-2.02656e-06 24.3451 0.418735 23.7967 0.999964 23.5899V21.9066C0.418735 21.6986 -2.02656e-06 21.1503 -2.02656e-06 20.4982C-2.02656e-06 19.8467 0.418735 19.2966 0.999964 19.0897V17.4059C0.418735 17.2003 -2.02656e-06 16.6507 -2.02656e-06 15.9986C-2.02656e-06 15.3465 0.418735 14.797 0.999964 14.589V12.9057C0.418735 12.7001 -2.02656e-06 12.1505 -2.02656e-06 11.4985C-2.02656e-06 10.8458 0.418735 10.2962 0.999964 10.0906V8.40619C0.418735 8.19934 -2.02656e-06 7.64979 -2.02656e-06 6.99771C-2.02656e-06 6.34623 0.418735 5.79609 0.999964 5.59046V3.90542C0.418735 3.69979 -2.02656e-06 3.15024 -2.02656e-06 2.49816C-2.02656e-06 1.66907 0.671647 0.998513 1.49995 0.998513C2.15216 0.998513 2.70148 1.41633 2.90816 1.99868H4.59182C4.79849 1.41633 5.34781 0.998513 5.99989 0.998513C6.65211 0.998513 7.20152 1.41633 7.4081 1.99868H9.09186C9.29841 1.41633 9.84786 0.998513 10.4999 0.998513C11.1522 0.998513 11.7016 1.41633 11.9081 1.99868H13.5918C13.7984 1.41633 14.3478 0.998513 15 0.998513C15.6522 0.998513 16.2015 1.41633 16.4082 1.99868H18.0918C18.2985 1.41633 18.8478 0.998513 19.5 0.998513C20.1521 0.998513 20.7014 1.41633 20.9081 1.99868H22.5919C22.7984 1.41633 23.3478 0.998513 24 0.998513C24.6522 0.998513 25.2015 1.41633 25.4081 1.99868H27.0918C27.2985 1.41633 27.8478 0.998513 28.5 0.998513C29.3283 0.998513 30 1.66907 30 2.49816C30 3.15024 29.5812 3.69979 29 3.90542V5.59046C29.5812 5.79609 30 6.34623 30 6.99771C30 7.64979 29.5812 8.19934 29 8.40619V10.0906C29.5812 10.2962 30 10.8458 30 11.4985C30 12.1505 29.5812 12.7001 29 12.9057V14.589C29.5812 14.797 30 15.3465 30 15.9986C30 16.6507 29.5812 17.2003 29 17.4059V19.0897C29.5812 19.2966 30 19.8467 30 20.4982C30 21.1503 29.5812 21.6986 29 21.9066V23.5899C29.5812 23.7967 30 24.3451 30 24.9989ZM26 4.99739H4.00003V26.9981H26V4.99739ZM13 20.9977L19.9999 12.4986L24.5 19.4986V25.4984H5.49991L11.5 19.4986L13 20.9977ZM9.99996 13.9983C8.34306 13.9983 6.99999 12.6548 6.99999 10.9972C6.99999 9.34019 8.34306 7.99847 9.99996 7.99847C11.6568 7.99847 13 9.34019 13 10.9972C13 12.6548 11.6568 13.9983 9.99996 13.9983Z" fill="#95E1D3"/>
</svg>
