<svg width="11" height="17" viewBox="0 0 11 17" fill="none" xmlns="http://www.w3.org/2000/svg">
<path fill-rule="evenodd" clip-rule="evenodd" d="M10.0089 15.1453C9.32871 15.466 8.71222 15.6931 8.16039 15.823C7.60809 15.953 7.01163 16.0179 6.37053 16.0179C5.64212 16.0179 5.21273 15.9255 4.65335 15.742C4.09408 15.5566 3.61651 15.2919 3.22214 14.9516C2.82583 14.6089 2.553 14.2435 2.39944 13.8597C2.247 13.474 2.17066 12.9161 2.17066 12.183V6.56882H0.00716197V4.30204C0.632696 4.09819 1.35802 3.80495 1.80297 3.42347C2.251 3.04141 2.60818 2.58365 2.87802 2.04781C3.14844 1.51435 3.33464 0.834849 3.43593 0.00812101H5.7014V3.71196H9.38341V6.56882H5.7014V10.6738C5.7014 11.603 5.68927 12.1383 5.78711 12.4005C5.88438 12.6628 6.12826 12.9346 6.3941 13.0919C6.7467 13.3041 7.14861 13.4108 7.60259 13.4108C8.4093 13.4108 9.21084 13.1468 10.0089 12.6205V15.1453Z" fill="#95E1D3"/>
</svg>
